<svg xmlns="http://www.w3.org/2000/svg" width="760" height="340" viewBox="0 0 760 340" font-family="system-ui,-apple-system,&#x27;Segoe UI&#x27;,Roboto,sans-serif" role="img">
<title>ALE: latency on extraction score · Insurance claims</title>
<rect width="760" height="340" fill="#ffffff"/>
<text x="16" y="24" font-size="15" font-weight="600" fill="#0b0b0b">ALE: latency on extraction score · Insurance claims</text>
<text x="16" y="42" font-size="11.5" fill="#6f6e69">Ridge surrogate with model as a factor, n = 110, cross-validated R² 0.225. Latency stands in for document length</text>
<line x1="58" x2="742" y1="269.85" y2="269.85" stroke="#e1e0d9"/>
<text x="52" y="273.85" font-size="11" fill="#6f6e69" text-anchor="end">-0.60</text>
<line x1="58" x2="742" y1="219.02" y2="219.02" stroke="#e1e0d9"/>
<text x="52" y="223.02" font-size="11" fill="#6f6e69" text-anchor="end">-0.40</text>
<line x1="58" x2="742" y1="168.19" y2="168.19" stroke="#e1e0d9"/>
<text x="52" y="172.19" font-size="11" fill="#6f6e69" text-anchor="end">-0.20</text>
<line x1="58" x2="742" y1="117.36" y2="117.36" stroke="#c3c2b7"/>
<text x="52" y="121.36" font-size="11" fill="#6f6e69" text-anchor="end">-0.00</text>
<text x="75.02" y="304" font-size="11" fill="#6f6e69" text-anchor="middle">1</text>
<text x="259.4" y="304" font-size="11" fill="#6f6e69" text-anchor="middle">4</text>
<text x="443.79" y="304" font-size="11" fill="#6f6e69" text-anchor="middle">16</text>
<text x="628.17" y="304" font-size="11" fill="#6f6e69" text-anchor="middle">64</text>
<text x="400" y="328" font-size="11" fill="#3d3d3a" text-anchor="middle">latency per document (s, log scale)</text>
<text x="14" y="182" font-size="11" fill="#3d3d3a" text-anchor="middle" transform="rotate(-90 14 182)">Δ score</text>
<line x1="243.81" x2="243.81" y1="288" y2="282" stroke="#3d3d3a" stroke-opacity="0.5"/>
<line x1="270.45" x2="270.45" y1="288" y2="282" stroke="#3d3d3a" stroke-opacity="0.5"/>
<line x1="339.53" x2="339.53" y1="288" y2="282" stroke="#3d3d3a" stroke-opacity="0.5"/>
<line x1="382.53" x2="382.53" y1="288" y2="282" stroke="#3d3d3a" stroke-opacity="0.5"/>
<line x1="441.3" x2="441.3" y1="288" y2="282" stroke="#3d3d3a" stroke-opacity="0.5"/>
<line x1="491.65" x2="491.65" y1="288" y2="282" stroke="#3d3d3a" stroke-opacity="0.5"/>
<line x1="517.44" x2="517.44" y1="288" y2="282" stroke="#3d3d3a" stroke-opacity="0.5"/>
<line x1="539.51" x2="539.51" y1="288" y2="282" stroke="#3d3d3a" stroke-opacity="0.5"/>
<line x1="548.11" x2="548.11" y1="288" y2="282" stroke="#3d3d3a" stroke-opacity="0.5"/>
<line x1="553.27" x2="553.27" y1="288" y2="282" stroke="#3d3d3a" stroke-opacity="0.5"/>
<line x1="557.88" x2="557.88" y1="288" y2="282" stroke="#3d3d3a" stroke-opacity="0.5"/>
<line x1="564.63" x2="564.63" y1="288" y2="282" stroke="#3d3d3a" stroke-opacity="0.5"/>
<line x1="571.23" x2="571.23" y1="288" y2="282" stroke="#3d3d3a" stroke-opacity="0.5"/>
<line x1="580.1" x2="580.1" y1="288" y2="282" stroke="#3d3d3a" stroke-opacity="0.5"/>
<line x1="589.24" x2="589.24" y1="288" y2="282" stroke="#3d3d3a" stroke-opacity="0.5"/>
<line x1="597.13" x2="597.13" y1="288" y2="282" stroke="#3d3d3a" stroke-opacity="0.5"/>
<line x1="623.74" x2="623.74" y1="288" y2="282" stroke="#3d3d3a" stroke-opacity="0.5"/>
<line x1="677.5" x2="677.5" y1="288" y2="282" stroke="#3d3d3a" stroke-opacity="0.5"/>
<line x1="710.87" x2="710.87" y1="288" y2="282" stroke="#3d3d3a" stroke-opacity="0.5"/>
<polygon points="58,115.48 270.45,103.66 382.53,101.07 491.65,90.62 539.51,94.31 553.27,96.49 564.63,97.97 580.1,100.02 597.13,104.32 677.5,116.16 742,117.81 742,150.57 677.5,134.79 597.13,125.18 580.1,122.97 564.63,120.56 553.27,118.93 539.51,118.25 491.65,115.91 382.53,116.09 270.45,143.99 58,273.38" fill="#2a78d6" fill-opacity="0.16"/>
<polyline points="58,214.19 270.45,125.64 382.53,108.89 491.65,101.14 539.51,103.25 553.27,105.01 564.63,106.63 580.1,109.12 597.13,112.4 677.5,125.62 742,137.51" fill="none" stroke="#2a78d6" stroke-width="2.2" stroke-linejoin="round"/>
<circle cx="58" cy="214.19" r="2.6" fill="#2a78d6"/>
<circle cx="270.45" cy="125.64" r="2.6" fill="#2a78d6"/>
<circle cx="382.53" cy="108.89" r="2.6" fill="#2a78d6"/>
<circle cx="491.65" cy="101.14" r="2.6" fill="#2a78d6"/>
<circle cx="539.51" cy="103.25" r="2.6" fill="#2a78d6"/>
<circle cx="553.27" cy="105.01" r="2.6" fill="#2a78d6"/>
<circle cx="564.63" cy="106.63" r="2.6" fill="#2a78d6"/>
<circle cx="580.1" cy="109.12" r="2.6" fill="#2a78d6"/>
<circle cx="597.13" cy="112.4" r="2.6" fill="#2a78d6"/>
<circle cx="677.5" cy="125.62" r="2.6" fill="#2a78d6"/>
<circle cx="742" cy="137.51" r="2.6" fill="#2a78d6"/>
<line x1="58" x2="72" y1="58" y2="58" stroke="#2a78d6" stroke-width="2.5"/>
<text x="76" y="62" font-size="11" fill="#3d3d3a" text-anchor="start">ALE (90% bootstrap band)</text>
</svg>
