<svg xmlns="http://www.w3.org/2000/svg" width="760" height="1072" viewBox="0 0 760 1072" font-family="system-ui,-apple-system,&#x27;Segoe UI&#x27;,Roboto,sans-serif" role="img">
<title>Extraction score by subclass</title>
<rect width="760" height="1072" fill="#ffffff"/>
<text x="16" y="24" font-size="15" font-weight="600" fill="#0b0b0b">Extraction score by subclass</text>
<text x="16" y="42" font-size="11.5" fill="#6f6e69">All models pooled; subclasses with at least 3 scored documents, highest mean first</text>
<line x1="230" x2="230" y1="70" y2="1042" stroke="#e1e0d9"/>
<text x="230" y="1058" font-size="11" fill="#6f6e69" text-anchor="middle">0.0</text>
<line x1="332" x2="332" y1="70" y2="1042" stroke="#e1e0d9"/>
<text x="332" y="1058" font-size="11" fill="#6f6e69" text-anchor="middle">0.2</text>
<line x1="434" x2="434" y1="70" y2="1042" stroke="#e1e0d9"/>
<text x="434" y="1058" font-size="11" fill="#6f6e69" text-anchor="middle">0.4</text>
<line x1="536" x2="536" y1="70" y2="1042" stroke="#e1e0d9"/>
<text x="536" y="1058" font-size="11" fill="#6f6e69" text-anchor="middle">0.6</text>
<line x1="638" x2="638" y1="70" y2="1042" stroke="#e1e0d9"/>
<text x="638" y="1058" font-size="11" fill="#6f6e69" text-anchor="middle">0.8</text>
<line x1="740" x2="740" y1="70" y2="1042" stroke="#e1e0d9"/>
<text x="740" y="1058" font-size="11" fill="#6f6e69" text-anchor="middle">1.0</text>
<text x="16" y="84" font-size="12" fill="#0b0b0b" text-anchor="start" font-weight="600">Correspondence</text>
<text x="222" y="105" font-size="11" fill="#3d3d3a" text-anchor="end">meeting request (n=3)</text>
<circle cx="552.98" cy="101" r="3.4" fill="#2a78d6" fill-opacity="0.55"/>
<circle cx="552.98" cy="101" r="3.4" fill="#2a78d6" fill-opacity="0.55"/>
<circle cx="527.48" cy="101" r="3.4" fill="#2a78d6" fill-opacity="0.55"/>
<line x1="544.48" x2="544.48" y1="93" y2="109" stroke="#0b0b0b" stroke-width="2"/>
<text x="222" y="127" font-size="11" fill="#3d3d3a" text-anchor="end">press release (n=12)</text>
<circle cx="341.13" cy="123" r="3.4" fill="#2a78d6" fill-opacity="0.55"/>
<circle cx="603.98" cy="123" r="3.4" fill="#2a78d6" fill-opacity="0.55"/>
<circle cx="386.47" cy="123" r="3.4" fill="#2a78d6" fill-opacity="0.55"/>
<circle cx="386.37" cy="123" r="3.4" fill="#2a78d6" fill-opacity="0.55"/>
<circle cx="485" cy="123" r="3.4" fill="#2a78d6" fill-opacity="0.55"/>
<circle cx="587" cy="123" r="3.4" fill="#2a78d6" fill-opacity="0.55"/>
<circle cx="513.31" cy="123" r="3.4" fill="#2a78d6" fill-opacity="0.55"/>
<circle cx="396.21" cy="123" r="3.4" fill="#2a78d6" fill-opacity="0.55"/>
<circle cx="510.5" cy="123" r="3.4" fill="#2a78d6" fill-opacity="0.55"/>
<circle cx="587" cy="123" r="3.4" fill="#2a78d6" fill-opacity="0.55"/>
<circle cx="485" cy="123" r="3.4" fill="#2a78d6" fill-opacity="0.55"/>
<circle cx="459.3" cy="123" r="3.4" fill="#2a78d6" fill-opacity="0.55"/>
<line x1="478.44" x2="478.44" y1="115" y2="131" stroke="#0b0b0b" stroke-width="2"/>
<text x="222" y="149" font-size="11" fill="#3d3d3a" text-anchor="end">notice (n=9)</text>
<circle cx="357.6" cy="145" r="3.4" fill="#2a78d6" fill-opacity="0.55"/>
<circle cx="523.25" cy="145" r="3.4" fill="#2a78d6" fill-opacity="0.55"/>
<circle cx="349.34" cy="145" r="3.4" fill="#2a78d6" fill-opacity="0.55"/>
<circle cx="230" cy="145" r="3.4" fill="#2a78d6" fill-opacity="0.55"/>
<circle cx="510.5" cy="145" r="3.4" fill="#2a78d6" fill-opacity="0.55"/>
<circle cx="578.48" cy="145" r="3.4" fill="#2a78d6" fill-opacity="0.55"/>
<circle cx="541.66" cy="145" r="3.4" fill="#2a78d6" fill-opacity="0.55"/>
<circle cx="536" cy="145" r="3.4" fill="#2a78d6" fill-opacity="0.55"/>
<circle cx="552.98" cy="145" r="3.4" fill="#2a78d6" fill-opacity="0.55"/>
<line x1="464.42" x2="464.42" y1="137" y2="153" stroke="#0b0b0b" stroke-width="2"/>
<text x="222" y="171" font-size="11" fill="#3d3d3a" text-anchor="end">email (n=30)</text>
<circle cx="434.66" cy="167" r="3.4" fill="#2a78d6" fill-opacity="0.55"/>
<circle cx="573.28" cy="167" r="3.4" fill="#2a78d6" fill-opacity="0.55"/>
<circle cx="527.48" cy="167" r="3.4" fill="#2a78d6" fill-opacity="0.55"/>
<circle cx="485" cy="167" r="3.4" fill="#2a78d6" fill-opacity="0.55"/>
<circle cx="357.5" cy="167" r="3.4" fill="#2a78d6" fill-opacity="0.55"/>
<circle cx="401.77" cy="167" r="3.4" fill="#2a78d6" fill-opacity="0.55"/>
<circle cx="482.91" cy="167" r="3.4" fill="#2a78d6" fill-opacity="0.55"/>
<circle cx="485" cy="167" r="3.4" fill="#2a78d6" fill-opacity="0.55"/>
<circle cx="474.7" cy="167" r="3.4" fill="#2a78d6" fill-opacity="0.55"/>
<circle cx="403.86" cy="167" r="3.4" fill="#2a78d6" fill-opacity="0.55"/>
<circle cx="409.16" cy="167" r="3.4" fill="#2a78d6" fill-opacity="0.55"/>
<circle cx="524.22" cy="167" r="3.4" fill="#2a78d6" fill-opacity="0.55"/>
<circle cx="443.69" cy="167" r="3.4" fill="#2a78d6" fill-opacity="0.55"/>
<circle cx="485" cy="167" r="3.4" fill="#2a78d6" fill-opacity="0.55"/>
<circle cx="357.5" cy="167" r="3.4" fill="#2a78d6" fill-opacity="0.55"/>
<circle cx="403.86" cy="167" r="3.4" fill="#2a78d6" fill-opacity="0.55"/>
<circle cx="428.24" cy="167" r="3.4" fill="#2a78d6" fill-opacity="0.55"/>
<circle cx="230" cy="167" r="3.4" fill="#2a78d6" fill-opacity="0.55"/>
<circle cx="460.52" cy="167" r="3.4" fill="#2a78d6" fill-opacity="0.55"/>
<circle cx="403.86" cy="167" r="3.4" fill="#2a78d6" fill-opacity="0.55"/>
<circle cx="434.66" cy="167" r="3.4" fill="#2a78d6" fill-opacity="0.55"/>
<circle cx="514.43" cy="167" r="3.4" fill="#2a78d6" fill-opacity="0.55"/>
<circle cx="443.69" cy="167" r="3.4" fill="#2a78d6" fill-opacity="0.55"/>
<circle cx="485" cy="167" r="3.4" fill="#2a78d6" fill-opacity="0.55"/>
<circle cx="357.5" cy="167" r="3.4" fill="#2a78d6" fill-opacity="0.55"/>
<circle cx="485" cy="167" r="3.4" fill="#2a78d6" fill-opacity="0.55"/>
<circle cx="565.17" cy="167" r="3.4" fill="#2a78d6" fill-opacity="0.55"/>
<circle cx="485" cy="167" r="3.4" fill="#2a78d6" fill-opacity="0.55"/>
<circle cx="513.31" cy="167" r="3.4" fill="#2a78d6" fill-opacity="0.55"/>
<circle cx="485" cy="167" r="3.4" fill="#2a78d6" fill-opacity="0.55"/>
<line x1="451.37" x2="451.37" y1="159" y2="175" stroke="#0b0b0b" stroke-width="2"/>
<text x="222" y="193" font-size="11" fill="#3d3d3a" text-anchor="end">letter (n=6)</text>
<circle cx="463.68" cy="189" r="3.4" fill="#2a78d6" fill-opacity="0.55"/>
<circle cx="516.88" cy="189" r="3.4" fill="#2a78d6" fill-opacity="0.55"/>
<circle cx="230" cy="189" r="3.4" fill="#2a78d6" fill-opacity="0.55"/>
<circle cx="516.88" cy="189" r="3.4" fill="#2a78d6" fill-opacity="0.55"/>
<circle cx="452.05" cy="189" r="3.4" fill="#2a78d6" fill-opacity="0.55"/>
<circle cx="411.87" cy="189" r="3.4" fill="#2a78d6" fill-opacity="0.55"/>
<line x1="431.89" x2="431.89" y1="181" y2="197" stroke="#0b0b0b" stroke-width="2"/>
<text x="16" y="214" font-size="12" fill="#0b0b0b" text-anchor="start" font-weight="600">Insurance claims</text>
<text x="222" y="235" font-size="11" fill="#3d3d3a" text-anchor="end">auto (n=24)</text>
<circle cx="671.2" cy="231" r="3.4" fill="#2a78d6" fill-opacity="0.55"/>
<circle cx="697.52" cy="231" r="3.4" fill="#2a78d6" fill-opacity="0.55"/>
<circle cx="678.49" cy="231" r="3.4" fill="#2a78d6" fill-opacity="0.55"/>
<circle cx="722.97" cy="231" r="3.4" fill="#2a78d6" fill-opacity="0.55"/>
<circle cx="676.45" cy="231" r="3.4" fill="#2a78d6" fill-opacity="0.55"/>
<circle cx="672.17" cy="231" r="3.4" fill="#2a78d6" fill-opacity="0.55"/>
<circle cx="719.96" cy="231" r="3.4" fill="#2a78d6" fill-opacity="0.55"/>
<circle cx="721.18" cy="231" r="3.4" fill="#2a78d6" fill-opacity="0.55"/>
<circle cx="665.39" cy="231" r="3.4" fill="#2a78d6" fill-opacity="0.55"/>
<circle cx="680.48" cy="231" r="3.4" fill="#2a78d6" fill-opacity="0.55"/>
<circle cx="633.46" cy="231" r="3.4" fill="#2a78d6" fill-opacity="0.55"/>
<circle cx="722.86" cy="231" r="3.4" fill="#2a78d6" fill-opacity="0.55"/>
<circle cx="669.62" cy="231" r="3.4" fill="#2a78d6" fill-opacity="0.55"/>
<circle cx="662.48" cy="231" r="3.4" fill="#2a78d6" fill-opacity="0.55"/>
<circle cx="680.13" cy="231" r="3.4" fill="#2a78d6" fill-opacity="0.55"/>
<circle cx="681.04" cy="231" r="3.4" fill="#2a78d6" fill-opacity="0.55"/>
<circle cx="666.36" cy="231" r="3.4" fill="#2a78d6" fill-opacity="0.55"/>
<circle cx="654.98" cy="231" r="3.4" fill="#2a78d6" fill-opacity="0.55"/>
<circle cx="616.73" cy="231" r="3.4" fill="#2a78d6" fill-opacity="0.55"/>
<circle cx="689" cy="231" r="3.4" fill="#2a78d6" fill-opacity="0.55"/>
<circle cx="658.81" cy="231" r="3.4" fill="#2a78d6" fill-opacity="0.55"/>
<circle cx="659.57" cy="231" r="3.4" fill="#2a78d6" fill-opacity="0.55"/>
<circle cx="654.98" cy="231" r="3.4" fill="#2a78d6" fill-opacity="0.55"/>
<circle cx="654.98" cy="231" r="3.4" fill="#2a78d6" fill-opacity="0.55"/>
<line x1="675.45" x2="675.45" y1="223" y2="239" stroke="#0b0b0b" stroke-width="2"/>
<text x="222" y="257" font-size="11" fill="#3d3d3a" text-anchor="end">inpatient (n=3)</text>
<circle cx="649.58" cy="253" r="3.4" fill="#2a78d6" fill-opacity="0.55"/>
<circle cx="567.93" cy="253" r="3.4" fill="#2a78d6" fill-opacity="0.55"/>
<circle cx="614.28" cy="253" r="3.4" fill="#2a78d6" fill-opacity="0.55"/>
<line x1="610.6" x2="610.6" y1="245" y2="261" stroke="#0b0b0b" stroke-width="2"/>
<text x="222" y="279" font-size="11" fill="#3d3d3a" text-anchor="end">outpatient (n=6)</text>
<circle cx="604.7" cy="275" r="3.4" fill="#2a78d6" fill-opacity="0.55"/>
<circle cx="598.53" cy="275" r="3.4" fill="#2a78d6" fill-opacity="0.55"/>
<circle cx="567.62" cy="275" r="3.4" fill="#2a78d6" fill-opacity="0.55"/>
<circle cx="560.99" cy="275" r="3.4" fill="#2a78d6" fill-opacity="0.55"/>
<circle cx="604.7" cy="275" r="3.4" fill="#2a78d6" fill-opacity="0.55"/>
<circle cx="598.53" cy="275" r="3.4" fill="#2a78d6" fill-opacity="0.55"/>
<line x1="589.18" x2="589.18" y1="267" y2="283" stroke="#0b0b0b" stroke-width="2"/>
<text x="222" y="301" font-size="11" fill="#3d3d3a" text-anchor="end">property (n=3)</text>
<circle cx="562.26" cy="297" r="3.4" fill="#2a78d6" fill-opacity="0.55"/>
<circle cx="608.52" cy="297" r="3.4" fill="#2a78d6" fill-opacity="0.55"/>
<circle cx="575.17" cy="297" r="3.4" fill="#2a78d6" fill-opacity="0.55"/>
<line x1="581.99" x2="581.99" y1="289" y2="305" stroke="#0b0b0b" stroke-width="2"/>
<text x="222" y="323" font-size="11" fill="#3d3d3a" text-anchor="end">pde (n=15)</text>
<circle cx="581.03" cy="319" r="3.4" fill="#2a78d6" fill-opacity="0.55"/>
<circle cx="611.94" cy="319" r="3.4" fill="#2a78d6" fill-opacity="0.55"/>
<circle cx="584.09" cy="319" r="3.4" fill="#2a78d6" fill-opacity="0.55"/>
<circle cx="584.09" cy="319" r="3.4" fill="#2a78d6" fill-opacity="0.55"/>
<circle cx="588.73" cy="319" r="3.4" fill="#2a78d6" fill-opacity="0.55"/>
<circle cx="601.59" cy="319" r="3.4" fill="#2a78d6" fill-opacity="0.55"/>
<circle cx="519.17" cy="319" r="3.4" fill="#2a78d6" fill-opacity="0.55"/>
<circle cx="582" cy="319" r="3.4" fill="#2a78d6" fill-opacity="0.55"/>
<circle cx="519.17" cy="319" r="3.4" fill="#2a78d6" fill-opacity="0.55"/>
<circle cx="586.03" cy="319" r="3.4" fill="#2a78d6" fill-opacity="0.55"/>
<circle cx="565.58" cy="319" r="3.4" fill="#2a78d6" fill-opacity="0.55"/>
<circle cx="565.58" cy="319" r="3.4" fill="#2a78d6" fill-opacity="0.55"/>
<circle cx="565.58" cy="319" r="3.4" fill="#2a78d6" fill-opacity="0.55"/>
<circle cx="565.58" cy="319" r="3.4" fill="#2a78d6" fill-opacity="0.55"/>
<circle cx="565.58" cy="319" r="3.4" fill="#2a78d6" fill-opacity="0.55"/>
<line x1="572.38" x2="572.38" y1="311" y2="327" stroke="#0b0b0b" stroke-width="2"/>
<text x="222" y="345" font-size="11" fill="#3d3d3a" text-anchor="end">carrier (n=9)</text>
<circle cx="613.11" cy="341" r="3.4" fill="#2a78d6" fill-opacity="0.55"/>
<circle cx="597.66" cy="341" r="3.4" fill="#2a78d6" fill-opacity="0.55"/>
<circle cx="597.66" cy="341" r="3.4" fill="#2a78d6" fill-opacity="0.55"/>
<circle cx="551.3" cy="341" r="3.4" fill="#2a78d6" fill-opacity="0.55"/>
<circle cx="230" cy="341" r="3.4" fill="#2a78d6" fill-opacity="0.55"/>
<circle cx="587.66" cy="341" r="3.4" fill="#2a78d6" fill-opacity="0.55"/>
<circle cx="613.11" cy="341" r="3.4" fill="#2a78d6" fill-opacity="0.55"/>
<circle cx="597.66" cy="341" r="3.4" fill="#2a78d6" fill-opacity="0.55"/>
<circle cx="551.3" cy="341" r="3.4" fill="#2a78d6" fill-opacity="0.55"/>
<line x1="548.83" x2="548.83" y1="333" y2="349" stroke="#0b0b0b" stroke-width="2"/>
<text x="16" y="366" font-size="12" fill="#0b0b0b" text-anchor="start" font-weight="600">Corporate records</text>
<text x="222" y="387" font-size="11" fill="#3d3d3a" text-anchor="end">articles of incorporation (n=6)</text>
<circle cx="599.75" cy="383" r="3.4" fill="#2a78d6" fill-opacity="0.55"/>
<circle cx="622.09" cy="383" r="3.4" fill="#2a78d6" fill-opacity="0.55"/>
<circle cx="574.25" cy="383" r="3.4" fill="#2a78d6" fill-opacity="0.55"/>
<circle cx="590.21" cy="383" r="3.4" fill="#2a78d6" fill-opacity="0.55"/>
<circle cx="528.71" cy="383" r="3.4" fill="#2a78d6" fill-opacity="0.55"/>
<circle cx="612.5" cy="383" r="3.4" fill="#2a78d6" fill-opacity="0.55"/>
<line x1="587.92" x2="587.92" y1="375" y2="391" stroke="#0b0b0b" stroke-width="2"/>
<text x="222" y="409" font-size="11" fill="#3d3d3a" text-anchor="end">powers of attorney (n=3)</text>
<circle cx="603.98" cy="405" r="3.4" fill="#2a78d6" fill-opacity="0.55"/>
<circle cx="521.11" cy="405" r="3.4" fill="#2a78d6" fill-opacity="0.55"/>
<circle cx="510.5" cy="405" r="3.4" fill="#2a78d6" fill-opacity="0.55"/>
<line x1="545.2" x2="545.2" y1="397" y2="413" stroke="#0b0b0b" stroke-width="2"/>
<text x="222" y="431" font-size="11" fill="#3d3d3a" text-anchor="end">rights instrument (n=6)</text>
<circle cx="546.91" cy="427" r="3.4" fill="#2a78d6" fill-opacity="0.55"/>
<circle cx="546.91" cy="427" r="3.4" fill="#2a78d6" fill-opacity="0.55"/>
<circle cx="571.24" cy="427" r="3.4" fill="#2a78d6" fill-opacity="0.55"/>
<circle cx="546.91" cy="427" r="3.4" fill="#2a78d6" fill-opacity="0.55"/>
<circle cx="464.55" cy="427" r="3.4" fill="#2a78d6" fill-opacity="0.55"/>
<circle cx="519.58" cy="427" r="3.4" fill="#2a78d6" fill-opacity="0.55"/>
<line x1="532.68" x2="532.68" y1="419" y2="435" stroke="#0b0b0b" stroke-width="2"/>
<text x="222" y="453" font-size="11" fill="#3d3d3a" text-anchor="end">bylaws (n=3)</text>
<circle cx="561.5" cy="449" r="3.4" fill="#2a78d6" fill-opacity="0.55"/>
<circle cx="510.5" cy="449" r="3.4" fill="#2a78d6" fill-opacity="0.55"/>
<circle cx="510.5" cy="449" r="3.4" fill="#2a78d6" fill-opacity="0.55"/>
<line x1="527.5" x2="527.5" y1="441" y2="457" stroke="#0b0b0b" stroke-width="2"/>
<text x="222" y="475" font-size="11" fill="#3d3d3a" text-anchor="end">board resolution (n=6)</text>
<circle cx="464.45" cy="471" r="3.4" fill="#2a78d6" fill-opacity="0.55"/>
<circle cx="451.75" cy="471" r="3.4" fill="#2a78d6" fill-opacity="0.55"/>
<circle cx="445.93" cy="471" r="3.4" fill="#2a78d6" fill-opacity="0.55"/>
<circle cx="439" cy="471" r="3.4" fill="#2a78d6" fill-opacity="0.55"/>
<circle cx="439" cy="471" r="3.4" fill="#2a78d6" fill-opacity="0.55"/>
<circle cx="407.68" cy="471" r="3.4" fill="#2a78d6" fill-opacity="0.55"/>
<line x1="441.3" x2="441.3" y1="463" y2="479" stroke="#0b0b0b" stroke-width="2"/>
<text x="222" y="497" font-size="11" fill="#3d3d3a" text-anchor="end">subsidiary list (n=6)</text>
<circle cx="467.97" cy="493" r="3.4" fill="#2a78d6" fill-opacity="0.55"/>
<circle cx="466.44" cy="493" r="3.4" fill="#2a78d6" fill-opacity="0.55"/>
<circle cx="230" cy="493" r="3.4" fill="#2a78d6" fill-opacity="0.55"/>
<circle cx="466.44" cy="493" r="3.4" fill="#2a78d6" fill-opacity="0.55"/>
<circle cx="475.21" cy="493" r="3.4" fill="#2a78d6" fill-opacity="0.55"/>
<circle cx="466.44" cy="493" r="3.4" fill="#2a78d6" fill-opacity="0.55"/>
<line x1="428.75" x2="428.75" y1="485" y2="501" stroke="#0b0b0b" stroke-width="2"/>
<text x="222" y="519" font-size="11" fill="#3d3d3a" text-anchor="end">indenture (n=9)</text>
<circle cx="358.93" cy="515" r="3.4" fill="#2a78d6" fill-opacity="0.55"/>
<circle cx="413.04" cy="515" r="3.4" fill="#2a78d6" fill-opacity="0.55"/>
<circle cx="404.98" cy="515" r="3.4" fill="#2a78d6" fill-opacity="0.55"/>
<circle cx="359.8" cy="515" r="3.4" fill="#2a78d6" fill-opacity="0.55"/>
<circle cx="413.04" cy="515" r="3.4" fill="#2a78d6" fill-opacity="0.55"/>
<circle cx="388.87" cy="515" r="3.4" fill="#2a78d6" fill-opacity="0.55"/>
<circle cx="413.86" cy="515" r="3.4" fill="#2a78d6" fill-opacity="0.55"/>
<circle cx="504.99" cy="515" r="3.4" fill="#2a78d6" fill-opacity="0.55"/>
<circle cx="388.87" cy="515" r="3.4" fill="#2a78d6" fill-opacity="0.55"/>
<line x1="405.15" x2="405.15" y1="507" y2="523" stroke="#0b0b0b" stroke-width="2"/>
<text x="222" y="541" font-size="11" fill="#3d3d3a" text-anchor="end">charter amendment (n=12)</text>
<circle cx="417.63" cy="537" r="3.4" fill="#2a78d6" fill-opacity="0.55"/>
<circle cx="388.05" cy="537" r="3.4" fill="#2a78d6" fill-opacity="0.55"/>
<circle cx="374.28" cy="537" r="3.4" fill="#2a78d6" fill-opacity="0.55"/>
<circle cx="338.99" cy="537" r="3.4" fill="#2a78d6" fill-opacity="0.55"/>
<circle cx="370.86" cy="537" r="3.4" fill="#2a78d6" fill-opacity="0.55"/>
<circle cx="388" cy="537" r="3.4" fill="#2a78d6" fill-opacity="0.55"/>
<circle cx="358.57" cy="537" r="3.4" fill="#2a78d6" fill-opacity="0.55"/>
<circle cx="531.41" cy="537" r="3.4" fill="#2a78d6" fill-opacity="0.55"/>
<circle cx="360.25" cy="537" r="3.4" fill="#2a78d6" fill-opacity="0.55"/>
<circle cx="358.57" cy="537" r="3.4" fill="#2a78d6" fill-opacity="0.55"/>
<circle cx="348.78" cy="537" r="3.4" fill="#2a78d6" fill-opacity="0.55"/>
<circle cx="362.91" cy="537" r="3.4" fill="#2a78d6" fill-opacity="0.55"/>
<line x1="383.19" x2="383.19" y1="529" y2="545" stroke="#0b0b0b" stroke-width="2"/>
<text x="222" y="563" font-size="11" fill="#3d3d3a" text-anchor="end">officer certificate (n=9)</text>
<circle cx="354.29" cy="559" r="3.4" fill="#2a78d6" fill-opacity="0.55"/>
<circle cx="354.29" cy="559" r="3.4" fill="#2a78d6" fill-opacity="0.55"/>
<circle cx="366.78" cy="559" r="3.4" fill="#2a78d6" fill-opacity="0.55"/>
<circle cx="401.97" cy="559" r="3.4" fill="#2a78d6" fill-opacity="0.55"/>
<circle cx="346.99" cy="559" r="3.4" fill="#2a78d6" fill-opacity="0.55"/>
<circle cx="384.27" cy="559" r="3.4" fill="#2a78d6" fill-opacity="0.55"/>
<circle cx="311.7" cy="559" r="3.4" fill="#2a78d6" fill-opacity="0.55"/>
<circle cx="346.99" cy="559" r="3.4" fill="#2a78d6" fill-opacity="0.55"/>
<circle cx="352.91" cy="559" r="3.4" fill="#2a78d6" fill-opacity="0.55"/>
<line x1="357.8" x2="357.8" y1="551" y2="567" stroke="#0b0b0b" stroke-width="2"/>
<text x="16" y="584" font-size="12" fill="#0b0b0b" text-anchor="start" font-weight="600">Contracts</text>
<text x="222" y="605" font-size="11" fill="#3d3d3a" text-anchor="end">Consulting Agreements (n=3)</text>
<circle cx="740" cy="601" r="3.4" fill="#2a78d6" fill-opacity="0.55"/>
<circle cx="740" cy="601" r="3.4" fill="#2a78d6" fill-opacity="0.55"/>
<circle cx="740" cy="601" r="3.4" fill="#2a78d6" fill-opacity="0.55"/>
<line x1="740" x2="740" y1="593" y2="609" stroke="#0b0b0b" stroke-width="2"/>
<text x="222" y="627" font-size="11" fill="#3d3d3a" text-anchor="end">Sponsorship (n=3)</text>
<circle cx="670.49" cy="623" r="3.4" fill="#2a78d6" fill-opacity="0.55"/>
<circle cx="647.28" cy="623" r="3.4" fill="#2a78d6" fill-opacity="0.55"/>
<circle cx="554.51" cy="623" r="3.4" fill="#2a78d6" fill-opacity="0.55"/>
<line x1="624.09" x2="624.09" y1="615" y2="631" stroke="#0b0b0b" stroke-width="2"/>
<text x="222" y="649" font-size="11" fill="#3d3d3a" text-anchor="end">License Agreements (n=3)</text>
<circle cx="607.81" cy="645" r="3.4" fill="#2a78d6" fill-opacity="0.55"/>
<circle cx="532.23" cy="645" r="3.4" fill="#2a78d6" fill-opacity="0.55"/>
<circle cx="560.58" cy="645" r="3.4" fill="#2a78d6" fill-opacity="0.55"/>
<line x1="566.87" x2="566.87" y1="637" y2="653" stroke="#0b0b0b" stroke-width="2"/>
<text x="222" y="671" font-size="11" fill="#3d3d3a" text-anchor="end">Development (n=3)</text>
<circle cx="600.87" cy="667" r="3.4" fill="#2a78d6" fill-opacity="0.55"/>
<circle cx="539.06" cy="667" r="3.4" fill="#2a78d6" fill-opacity="0.55"/>
<circle cx="523.61" cy="667" r="3.4" fill="#2a78d6" fill-opacity="0.55"/>
<line x1="554.51" x2="554.51" y1="659" y2="675" stroke="#0b0b0b" stroke-width="2"/>
<text x="222" y="693" font-size="11" fill="#3d3d3a" text-anchor="end">Strategic Alliance (n=12)</text>
<circle cx="569.97" cy="689" r="3.4" fill="#2a78d6" fill-opacity="0.55"/>
<circle cx="667.17" cy="689" r="3.4" fill="#2a78d6" fill-opacity="0.55"/>
<circle cx="230" cy="689" r="3.4" fill="#2a78d6" fill-opacity="0.55"/>
<circle cx="560.02" cy="689" r="3.4" fill="#2a78d6" fill-opacity="0.55"/>
<circle cx="506.22" cy="689" r="3.4" fill="#2a78d6" fill-opacity="0.55"/>
<circle cx="539.62" cy="689" r="3.4" fill="#2a78d6" fill-opacity="0.55"/>
<circle cx="548.75" cy="689" r="3.4" fill="#2a78d6" fill-opacity="0.55"/>
<circle cx="545.03" cy="689" r="3.4" fill="#2a78d6" fill-opacity="0.55"/>
<circle cx="492.09" cy="689" r="3.4" fill="#2a78d6" fill-opacity="0.55"/>
<circle cx="557.88" cy="689" r="3.4" fill="#2a78d6" fill-opacity="0.55"/>
<circle cx="612.5" cy="689" r="3.4" fill="#2a78d6" fill-opacity="0.55"/>
<circle cx="522.54" cy="689" r="3.4" fill="#2a78d6" fill-opacity="0.55"/>
<line x1="529.31" x2="529.31" y1="681" y2="697" stroke="#0b0b0b" stroke-width="2"/>
<text x="222" y="715" font-size="11" fill="#3d3d3a" text-anchor="end">Promotion (n=3)</text>
<circle cx="524.83" cy="711" r="3.4" fill="#2a78d6" fill-opacity="0.55"/>
<circle cx="520.85" cy="711" r="3.4" fill="#2a78d6" fill-opacity="0.55"/>
<circle cx="496.93" cy="711" r="3.4" fill="#2a78d6" fill-opacity="0.55"/>
<line x1="514.21" x2="514.21" y1="703" y2="719" stroke="#0b0b0b" stroke-width="2"/>
<text x="222" y="737" font-size="11" fill="#3d3d3a" text-anchor="end">Collaboration (n=3)</text>
<circle cx="518.97" cy="733" r="3.4" fill="#2a78d6" fill-opacity="0.55"/>
<circle cx="505.4" cy="733" r="3.4" fill="#2a78d6" fill-opacity="0.55"/>
<circle cx="505.4" cy="733" r="3.4" fill="#2a78d6" fill-opacity="0.55"/>
<line x1="509.92" x2="509.92" y1="725" y2="741" stroke="#0b0b0b" stroke-width="2"/>
<text x="222" y="759" font-size="11" fill="#3d3d3a" text-anchor="end">Endorsement (n=3)</text>
<circle cx="626.68" cy="755" r="3.4" fill="#2a78d6" fill-opacity="0.55"/>
<circle cx="230" cy="755" r="3.4" fill="#2a78d6" fill-opacity="0.55"/>
<circle cx="541.66" cy="755" r="3.4" fill="#2a78d6" fill-opacity="0.55"/>
<line x1="466.11" x2="466.11" y1="747" y2="763" stroke="#0b0b0b" stroke-width="2"/>
<text x="222" y="781" font-size="11" fill="#3d3d3a" text-anchor="end">Distributor (n=9)</text>
<circle cx="581.34" cy="777" r="3.4" fill="#2a78d6" fill-opacity="0.55"/>
<circle cx="230" cy="777" r="3.4" fill="#2a78d6" fill-opacity="0.55"/>
<circle cx="230" cy="777" r="3.4" fill="#2a78d6" fill-opacity="0.55"/>
<circle cx="530.34" cy="777" r="3.4" fill="#2a78d6" fill-opacity="0.55"/>
<circle cx="508.92" cy="777" r="3.4" fill="#2a78d6" fill-opacity="0.55"/>
<circle cx="551.5" cy="777" r="3.4" fill="#2a78d6" fill-opacity="0.55"/>
<circle cx="513.31" cy="777" r="3.4" fill="#2a78d6" fill-opacity="0.55"/>
<circle cx="508.92" cy="777" r="3.4" fill="#2a78d6" fill-opacity="0.55"/>
<circle cx="518.25" cy="777" r="3.4" fill="#2a78d6" fill-opacity="0.55"/>
<line x1="463.62" x2="463.62" y1="769" y2="785" stroke="#0b0b0b" stroke-width="2"/>
<text x="222" y="803" font-size="11" fill="#3d3d3a" text-anchor="end">Joint Venture   Filing (n=3)</text>
<circle cx="621.58" cy="799" r="3.4" fill="#2a78d6" fill-opacity="0.55"/>
<circle cx="230" cy="799" r="3.4" fill="#2a78d6" fill-opacity="0.55"/>
<circle cx="512.28" cy="799" r="3.4" fill="#2a78d6" fill-opacity="0.55"/>
<line x1="454.62" x2="454.62" y1="791" y2="807" stroke="#0b0b0b" stroke-width="2"/>
<text x="222" y="825" font-size="11" fill="#3d3d3a" text-anchor="end">Maintenance (n=3)</text>
<circle cx="581.7" cy="821" r="3.4" fill="#2a78d6" fill-opacity="0.55"/>
<circle cx="230" cy="821" r="3.4" fill="#2a78d6" fill-opacity="0.55"/>
<circle cx="520.14" cy="821" r="3.4" fill="#2a78d6" fill-opacity="0.55"/>
<line x1="443.94" x2="443.94" y1="813" y2="829" stroke="#0b0b0b" stroke-width="2"/>
<text x="222" y="847" font-size="11" fill="#3d3d3a" text-anchor="end">IP (n=6)</text>
<circle cx="409.21" cy="843" r="3.4" fill="#2a78d6" fill-opacity="0.55"/>
<circle cx="409.21" cy="843" r="3.4" fill="#2a78d6" fill-opacity="0.55"/>
<circle cx="409.21" cy="843" r="3.4" fill="#2a78d6" fill-opacity="0.55"/>
<circle cx="230" cy="843" r="3.4" fill="#2a78d6" fill-opacity="0.55"/>
<circle cx="740" cy="843" r="3.4" fill="#2a78d6" fill-opacity="0.55"/>
<circle cx="409.21" cy="843" r="3.4" fill="#2a78d6" fill-opacity="0.55"/>
<line x1="434.48" x2="434.48" y1="835" y2="851" stroke="#0b0b0b" stroke-width="2"/>
<text x="222" y="869" font-size="11" fill="#3d3d3a" text-anchor="end">Franchise (n=3)</text>
<circle cx="230" cy="865" r="3.4" fill="#2a78d6" fill-opacity="0.55"/>
<circle cx="518.4" cy="865" r="3.4" fill="#2a78d6" fill-opacity="0.55"/>
<circle cx="536.61" cy="865" r="3.4" fill="#2a78d6" fill-opacity="0.55"/>
<line x1="428.34" x2="428.34" y1="857" y2="873" stroke="#0b0b0b" stroke-width="2"/>
<text x="222" y="891" font-size="11" fill="#3d3d3a" text-anchor="end">Marketing (n=3)</text>
<circle cx="230" cy="887" r="3.4" fill="#2a78d6" fill-opacity="0.55"/>
<circle cx="401.62" cy="887" r="3.4" fill="#2a78d6" fill-opacity="0.55"/>
<circle cx="526.11" cy="887" r="3.4" fill="#2a78d6" fill-opacity="0.55"/>
<line x1="385.91" x2="385.91" y1="879" y2="895" stroke="#0b0b0b" stroke-width="2"/>
<text x="16" y="912" font-size="12" fill="#0b0b0b" text-anchor="start" font-weight="600">Merger agreements</text>
<text x="222" y="933" font-size="11" fill="#3d3d3a" text-anchor="end">all cash (n=15)</text>
<circle cx="603.98" cy="929" r="3.4" fill="#2a78d6" fill-opacity="0.55"/>
<circle cx="590.01" cy="929" r="3.4" fill="#2a78d6" fill-opacity="0.55"/>
<circle cx="612.5" cy="929" r="3.4" fill="#2a78d6" fill-opacity="0.55"/>
<circle cx="230" cy="929" r="3.4" fill="#2a78d6" fill-opacity="0.55"/>
<circle cx="230" cy="929" r="3.4" fill="#2a78d6" fill-opacity="0.55"/>
<circle cx="569.97" cy="929" r="3.4" fill="#2a78d6" fill-opacity="0.55"/>
<circle cx="485" cy="929" r="3.4" fill="#2a78d6" fill-opacity="0.55"/>
<circle cx="499.18" cy="929" r="3.4" fill="#2a78d6" fill-opacity="0.55"/>
<circle cx="499.18" cy="929" r="3.4" fill="#2a78d6" fill-opacity="0.55"/>
<circle cx="516.88" cy="929" r="3.4" fill="#2a78d6" fill-opacity="0.55"/>
<circle cx="552.98" cy="929" r="3.4" fill="#2a78d6" fill-opacity="0.55"/>
<circle cx="545.03" cy="929" r="3.4" fill="#2a78d6" fill-opacity="0.55"/>
<circle cx="584.19" cy="929" r="3.4" fill="#2a78d6" fill-opacity="0.55"/>
<circle cx="541.66" cy="929" r="3.4" fill="#2a78d6" fill-opacity="0.55"/>
<circle cx="532.84" cy="929" r="3.4" fill="#2a78d6" fill-opacity="0.55"/>
<line x1="506.23" x2="506.23" y1="921" y2="937" stroke="#0b0b0b" stroke-width="2"/>
<text x="222" y="955" font-size="11" fill="#3d3d3a" text-anchor="end">all stock (n=6)</text>
<circle cx="565.73" cy="951" r="3.4" fill="#2a78d6" fill-opacity="0.55"/>
<circle cx="230" cy="951" r="3.4" fill="#2a78d6" fill-opacity="0.55"/>
<circle cx="485" cy="951" r="3.4" fill="#2a78d6" fill-opacity="0.55"/>
<circle cx="399.06" cy="951" r="3.4" fill="#2a78d6" fill-opacity="0.55"/>
<circle cx="514.78" cy="951" r="3.4" fill="#2a78d6" fill-opacity="0.55"/>
<circle cx="545.03" cy="951" r="3.4" fill="#2a78d6" fill-opacity="0.55"/>
<line x1="456.6" x2="456.6" y1="943" y2="959" stroke="#0b0b0b" stroke-width="2"/>
<text x="222" y="977" font-size="11" fill="#3d3d3a" text-anchor="end">mixed cash stock (n=9)</text>
<circle cx="230" cy="973" r="3.4" fill="#2a78d6" fill-opacity="0.55"/>
<circle cx="230" cy="973" r="3.4" fill="#2a78d6" fill-opacity="0.55"/>
<circle cx="230" cy="973" r="3.4" fill="#2a78d6" fill-opacity="0.55"/>
<circle cx="485" cy="973" r="3.4" fill="#2a78d6" fill-opacity="0.55"/>
<circle cx="485" cy="973" r="3.4" fill="#2a78d6" fill-opacity="0.55"/>
<circle cx="548.75" cy="973" r="3.4" fill="#2a78d6" fill-opacity="0.55"/>
<circle cx="485" cy="973" r="3.4" fill="#2a78d6" fill-opacity="0.55"/>
<circle cx="230" cy="973" r="3.4" fill="#2a78d6" fill-opacity="0.55"/>
<circle cx="523.25" cy="973" r="3.4" fill="#2a78d6" fill-opacity="0.55"/>
<line x1="383" x2="383" y1="965" y2="981" stroke="#0b0b0b" stroke-width="2"/>
<text x="222" y="999" font-size="11" fill="#3d3d3a" text-anchor="end">other (n=27)</text>
<circle cx="544.26" cy="995" r="3.4" fill="#2a78d6" fill-opacity="0.55"/>
<circle cx="418.7" cy="995" r="3.4" fill="#2a78d6" fill-opacity="0.55"/>
<circle cx="394.27" cy="995" r="3.4" fill="#2a78d6" fill-opacity="0.55"/>
<circle cx="409.32" cy="995" r="3.4" fill="#2a78d6" fill-opacity="0.55"/>
<circle cx="230" cy="995" r="3.4" fill="#2a78d6" fill-opacity="0.55"/>
<circle cx="402.63" cy="995" r="3.4" fill="#2a78d6" fill-opacity="0.55"/>
<circle cx="230" cy="995" r="3.4" fill="#2a78d6" fill-opacity="0.55"/>
<circle cx="230" cy="995" r="3.4" fill="#2a78d6" fill-opacity="0.55"/>
<circle cx="230" cy="995" r="3.4" fill="#2a78d6" fill-opacity="0.55"/>
<circle cx="485" cy="995" r="3.4" fill="#2a78d6" fill-opacity="0.55"/>
<circle cx="485" cy="995" r="3.4" fill="#2a78d6" fill-opacity="0.55"/>
<circle cx="485" cy="995" r="3.4" fill="#2a78d6" fill-opacity="0.55"/>
<circle cx="280.49" cy="995" r="3.4" fill="#2a78d6" fill-opacity="0.55"/>
<circle cx="485" cy="995" r="3.4" fill="#2a78d6" fill-opacity="0.55"/>
<circle cx="485" cy="995" r="3.4" fill="#2a78d6" fill-opacity="0.55"/>
<circle cx="280.49" cy="995" r="3.4" fill="#2a78d6" fill-opacity="0.55"/>
<circle cx="280.49" cy="995" r="3.4" fill="#2a78d6" fill-opacity="0.55"/>
<circle cx="485" cy="995" r="3.4" fill="#2a78d6" fill-opacity="0.55"/>
<circle cx="364.28" cy="995" r="3.4" fill="#2a78d6" fill-opacity="0.55"/>
<circle cx="382.29" cy="995" r="3.4" fill="#2a78d6" fill-opacity="0.55"/>
<circle cx="319.3" cy="995" r="3.4" fill="#2a78d6" fill-opacity="0.55"/>
<circle cx="379.28" cy="995" r="3.4" fill="#2a78d6" fill-opacity="0.55"/>
<circle cx="342.25" cy="995" r="3.4" fill="#2a78d6" fill-opacity="0.55"/>
<circle cx="303.49" cy="995" r="3.4" fill="#2a78d6" fill-opacity="0.55"/>
<circle cx="325.52" cy="995" r="3.4" fill="#2a78d6" fill-opacity="0.55"/>
<circle cx="370.5" cy="995" r="3.4" fill="#2a78d6" fill-opacity="0.55"/>
<circle cx="351.23" cy="995" r="3.4" fill="#2a78d6" fill-opacity="0.55"/>
<line x1="369.59" x2="369.59" y1="987" y2="1003" stroke="#0b0b0b" stroke-width="2"/>
<text x="222" y="1021" font-size="11" fill="#3d3d3a" text-anchor="end">mixed cash stock election (n=3)</text>
<circle cx="230" cy="1017" r="3.4" fill="#2a78d6" fill-opacity="0.55"/>
<circle cx="514.99" cy="1017" r="3.4" fill="#2a78d6" fill-opacity="0.55"/>
<circle cx="230" cy="1017" r="3.4" fill="#2a78d6" fill-opacity="0.55"/>
<line x1="325" x2="325" y1="1009" y2="1025" stroke="#0b0b0b" stroke-width="2"/>
</svg>
