<svg xmlns="http://www.w3.org/2000/svg" width="760" height="544" viewBox="0 0 760 544" font-family="system-ui,-apple-system,&#x27;Segoe UI&#x27;,Roboto,sans-serif" role="img">
<title>Per-document extraction scores</title>
<rect width="760" height="544" fill="#ffffff"/>
<text x="16" y="24" font-size="15" font-weight="600" fill="#0b0b0b">Per-document extraction scores</text>
<text x="16" y="42" font-size="11.5" fill="#6f6e69">One dot per document, tick = mean. Wide strips = scores vary document to document</text>
<line x1="160" x2="160" y1="70" y2="514" stroke="#e1e0d9"/>
<text x="160" y="530" font-size="11" fill="#6f6e69" text-anchor="middle">0.0</text>
<line x1="276" x2="276" y1="70" y2="514" stroke="#e1e0d9"/>
<text x="276" y="530" font-size="11" fill="#6f6e69" text-anchor="middle">0.2</text>
<line x1="392" x2="392" y1="70" y2="514" stroke="#e1e0d9"/>
<text x="392" y="530" font-size="11" fill="#6f6e69" text-anchor="middle">0.4</text>
<line x1="508" x2="508" y1="70" y2="514" stroke="#e1e0d9"/>
<text x="508" y="530" font-size="11" fill="#6f6e69" text-anchor="middle">0.6</text>
<line x1="624" x2="624" y1="70" y2="514" stroke="#e1e0d9"/>
<text x="624" y="530" font-size="11" fill="#6f6e69" text-anchor="middle">0.8</text>
<line x1="740" x2="740" y1="70" y2="514" stroke="#e1e0d9"/>
<text x="740" y="530" font-size="11" fill="#6f6e69" text-anchor="middle">1.0</text>
<text x="16" y="84" font-size="12" fill="#0b0b0b" text-anchor="start" font-weight="600">Correspondence</text>
<text x="152" y="105" font-size="11" fill="#3d3d3a" text-anchor="end">DeepSeek V4.1 Flash</text>
<circle cx="392.75" cy="101" r="3.4" fill="#1baf7a" fill-opacity="0.55"/>
<circle cx="286.38" cy="101" r="3.4" fill="#1baf7a" fill-opacity="0.55"/>
<circle cx="550.4" cy="101" r="3.4" fill="#1baf7a" fill-opacity="0.55"/>
<circle cx="498.31" cy="101" r="3.4" fill="#1baf7a" fill-opacity="0.55"/>
<circle cx="425.76" cy="101" r="3.4" fill="#1baf7a" fill-opacity="0.55"/>
<circle cx="305.12" cy="101" r="3.4" fill="#1baf7a" fill-opacity="0.55"/>
<circle cx="450" cy="101" r="3.4" fill="#1baf7a" fill-opacity="0.55"/>
<circle cx="585.31" cy="101" r="3.4" fill="#1baf7a" fill-opacity="0.55"/>
<circle cx="305" cy="101" r="3.4" fill="#1baf7a" fill-opacity="0.55"/>
<circle cx="337.94" cy="101" r="3.4" fill="#1baf7a" fill-opacity="0.55"/>
<circle cx="486.25" cy="101" r="3.4" fill="#1baf7a" fill-opacity="0.55"/>
<circle cx="355.34" cy="101" r="3.4" fill="#1baf7a" fill-opacity="0.55"/>
<circle cx="527.31" cy="101" r="3.4" fill="#1baf7a" fill-opacity="0.55"/>
<circle cx="447.62" cy="101" r="3.4" fill="#1baf7a" fill-opacity="0.55"/>
<circle cx="337.83" cy="101" r="3.4" fill="#1baf7a" fill-opacity="0.55"/>
<circle cx="493.5" cy="101" r="3.4" fill="#1baf7a" fill-opacity="0.55"/>
<circle cx="450" cy="101" r="3.4" fill="#1baf7a" fill-opacity="0.55"/>
<circle cx="295.72" cy="101" r="3.4" fill="#1baf7a" fill-opacity="0.55"/>
<circle cx="438.28" cy="101" r="3.4" fill="#1baf7a" fill-opacity="0.55"/>
<circle cx="357.72" cy="101" r="3.4" fill="#1baf7a" fill-opacity="0.55"/>
<line x1="416.33" x2="416.33" y1="93" y2="109" stroke="#0b0b0b" stroke-width="2"/>
<text x="152" y="127" font-size="11" fill="#3d3d3a" text-anchor="end">Granite 4.2 8B</text>
<circle cx="363.75" cy="123" r="3.4" fill="#eb6834" fill-opacity="0.55"/>
<circle cx="450" cy="123" r="3.4" fill="#eb6834" fill-opacity="0.55"/>
<circle cx="494.6" cy="123" r="3.4" fill="#eb6834" fill-opacity="0.55"/>
<circle cx="403.02" cy="123" r="3.4" fill="#eb6834" fill-opacity="0.55"/>
<circle cx="160" cy="123" r="3.4" fill="#eb6834" fill-opacity="0.55"/>
<circle cx="160" cy="123" r="3.4" fill="#eb6834" fill-opacity="0.55"/>
<circle cx="450" cy="123" r="3.4" fill="#eb6834" fill-opacity="0.55"/>
<circle cx="566" cy="123" r="3.4" fill="#eb6834" fill-opacity="0.55"/>
<circle cx="305" cy="123" r="3.4" fill="#eb6834" fill-opacity="0.55"/>
<circle cx="482.19" cy="123" r="3.4" fill="#eb6834" fill-opacity="0.55"/>
<circle cx="486.25" cy="123" r="3.4" fill="#eb6834" fill-opacity="0.55"/>
<circle cx="357.72" cy="123" r="3.4" fill="#eb6834" fill-opacity="0.55"/>
<circle cx="527.31" cy="123" r="3.4" fill="#eb6834" fill-opacity="0.55"/>
<circle cx="385.45" cy="123" r="3.4" fill="#eb6834" fill-opacity="0.55"/>
<circle cx="349.02" cy="123" r="3.4" fill="#eb6834" fill-opacity="0.55"/>
<circle cx="479" cy="123" r="3.4" fill="#eb6834" fill-opacity="0.55"/>
<circle cx="160" cy="123" r="3.4" fill="#eb6834" fill-opacity="0.55"/>
<circle cx="556.31" cy="123" r="3.4" fill="#eb6834" fill-opacity="0.55"/>
<circle cx="422.16" cy="123" r="3.4" fill="#eb6834" fill-opacity="0.55"/>
<circle cx="357.72" cy="123" r="3.4" fill="#eb6834" fill-opacity="0.55"/>
<line x1="395.78" x2="395.78" y1="115" y2="131" stroke="#0b0b0b" stroke-width="2"/>
<text x="152" y="149" font-size="11" fill="#3d3d3a" text-anchor="end">Qwen3 8B</text>
<circle cx="392.75" cy="145" r="3.4" fill="#2a78d6" fill-opacity="0.55"/>
<circle cx="479" cy="145" r="3.4" fill="#2a78d6" fill-opacity="0.55"/>
<circle cx="483.47" cy="145" r="3.4" fill="#2a78d6" fill-opacity="0.55"/>
<circle cx="403.02" cy="145" r="3.4" fill="#2a78d6" fill-opacity="0.55"/>
<circle cx="412.53" cy="145" r="3.4" fill="#2a78d6" fill-opacity="0.55"/>
<circle cx="514.44" cy="145" r="3.4" fill="#2a78d6" fill-opacity="0.55"/>
<circle cx="450" cy="145" r="3.4" fill="#2a78d6" fill-opacity="0.55"/>
<circle cx="566" cy="145" r="3.4" fill="#2a78d6" fill-opacity="0.55"/>
<circle cx="305" cy="145" r="3.4" fill="#2a78d6" fill-opacity="0.55"/>
<circle cx="450" cy="145" r="3.4" fill="#2a78d6" fill-opacity="0.55"/>
<circle cx="366.83" cy="145" r="3.4" fill="#2a78d6" fill-opacity="0.55"/>
<circle cx="450" cy="145" r="3.4" fill="#2a78d6" fill-opacity="0.55"/>
<circle cx="498.31" cy="145" r="3.4" fill="#2a78d6" fill-opacity="0.55"/>
<circle cx="541.18" cy="145" r="3.4" fill="#2a78d6" fill-opacity="0.55"/>
<circle cx="420.77" cy="145" r="3.4" fill="#2a78d6" fill-opacity="0.55"/>
<circle cx="508" cy="145" r="3.4" fill="#2a78d6" fill-opacity="0.55"/>
<circle cx="450" cy="145" r="3.4" fill="#2a78d6" fill-opacity="0.55"/>
<circle cx="527.31" cy="145" r="3.4" fill="#2a78d6" fill-opacity="0.55"/>
<circle cx="482.19" cy="145" r="3.4" fill="#2a78d6" fill-opacity="0.55"/>
<circle cx="450" cy="145" r="3.4" fill="#2a78d6" fill-opacity="0.55"/>
<line x1="457.54" x2="457.54" y1="137" y2="153" stroke="#0b0b0b" stroke-width="2"/>
<text x="16" y="170" font-size="12" fill="#0b0b0b" text-anchor="start" font-weight="600">Insurance claims</text>
<text x="152" y="191" font-size="11" fill="#3d3d3a" text-anchor="end">DeepSeek V4.1 Flash</text>
<circle cx="559.21" cy="187" r="3.4" fill="#1baf7a" fill-opacity="0.55"/>
<circle cx="661.76" cy="187" r="3.4" fill="#1baf7a" fill-opacity="0.55"/>
<circle cx="595.7" cy="187" r="3.4" fill="#1baf7a" fill-opacity="0.55"/>
<circle cx="578.12" cy="187" r="3.4" fill="#1baf7a" fill-opacity="0.55"/>
<circle cx="586.13" cy="187" r="3.4" fill="#1baf7a" fill-opacity="0.55"/>
<circle cx="594.36" cy="187" r="3.4" fill="#1baf7a" fill-opacity="0.55"/>
<circle cx="691.69" cy="187" r="3.4" fill="#1baf7a" fill-opacity="0.55"/>
<circle cx="670.05" cy="187" r="3.4" fill="#1baf7a" fill-opacity="0.55"/>
<circle cx="720.63" cy="187" r="3.4" fill="#1baf7a" fill-opacity="0.55"/>
<circle cx="562.69" cy="187" r="3.4" fill="#1baf7a" fill-opacity="0.55"/>
<circle cx="579.11" cy="187" r="3.4" fill="#1baf7a" fill-opacity="0.55"/>
<circle cx="667.73" cy="187" r="3.4" fill="#1baf7a" fill-opacity="0.55"/>
<circle cx="662.86" cy="187" r="3.4" fill="#1baf7a" fill-opacity="0.55"/>
<circle cx="717.21" cy="187" r="3.4" fill="#1baf7a" fill-opacity="0.55"/>
<circle cx="562.69" cy="187" r="3.4" fill="#1baf7a" fill-opacity="0.55"/>
<circle cx="578.12" cy="187" r="3.4" fill="#1baf7a" fill-opacity="0.55"/>
<circle cx="637.17" cy="187" r="3.4" fill="#1baf7a" fill-opacity="0.55"/>
<circle cx="718.6" cy="187" r="3.4" fill="#1baf7a" fill-opacity="0.55"/>
<circle cx="567.97" cy="187" r="3.4" fill="#1baf7a" fill-opacity="0.55"/>
<circle cx="537.87" cy="187" r="3.4" fill="#1baf7a" fill-opacity="0.55"/>
<line x1="622.48" x2="622.48" y1="179" y2="195" stroke="#0b0b0b" stroke-width="2"/>
<text x="152" y="213" font-size="11" fill="#3d3d3a" text-anchor="end">Granite 4.2 8B</text>
<circle cx="582.59" cy="209" r="3.4" fill="#eb6834" fill-opacity="0.55"/>
<circle cx="655.15" cy="209" r="3.4" fill="#eb6834" fill-opacity="0.55"/>
<circle cx="525.4" cy="209" r="3.4" fill="#eb6834" fill-opacity="0.55"/>
<circle cx="160" cy="209" r="3.4" fill="#eb6834" fill-opacity="0.55"/>
<circle cx="543.96" cy="209" r="3.4" fill="#eb6834" fill-opacity="0.55"/>
<circle cx="488.86" cy="209" r="3.4" fill="#eb6834" fill-opacity="0.55"/>
<circle cx="672.31" cy="209" r="3.4" fill="#eb6834" fill-opacity="0.55"/>
<circle cx="618.84" cy="209" r="3.4" fill="#eb6834" fill-opacity="0.55"/>
<circle cx="720.51" cy="209" r="3.4" fill="#eb6834" fill-opacity="0.55"/>
<circle cx="560.32" cy="209" r="3.4" fill="#eb6834" fill-opacity="0.55"/>
<circle cx="536.42" cy="209" r="3.4" fill="#eb6834" fill-opacity="0.55"/>
<circle cx="659.96" cy="209" r="3.4" fill="#eb6834" fill-opacity="0.55"/>
<circle cx="651.84" cy="209" r="3.4" fill="#eb6834" fill-opacity="0.55"/>
<circle cx="671.91" cy="209" r="3.4" fill="#eb6834" fill-opacity="0.55"/>
<circle cx="488.86" cy="209" r="3.4" fill="#eb6834" fill-opacity="0.55"/>
<circle cx="566.75" cy="209" r="3.4" fill="#eb6834" fill-opacity="0.55"/>
<circle cx="544.31" cy="209" r="3.4" fill="#eb6834" fill-opacity="0.55"/>
<circle cx="672.95" cy="209" r="3.4" fill="#eb6834" fill-opacity="0.55"/>
<circle cx="564.9" cy="209" r="3.4" fill="#eb6834" fill-opacity="0.55"/>
<circle cx="590.48" cy="209" r="3.4" fill="#eb6834" fill-opacity="0.55"/>
<line x1="573.82" x2="573.82" y1="201" y2="217" stroke="#0b0b0b" stroke-width="2"/>
<text x="152" y="235" font-size="11" fill="#3d3d3a" text-anchor="end">Qwen3 8B</text>
<circle cx="541.64" cy="231" r="3.4" fill="#2a78d6" fill-opacity="0.55"/>
<circle cx="656.25" cy="231" r="3.4" fill="#2a78d6" fill-opacity="0.55"/>
<circle cx="595.7" cy="231" r="3.4" fill="#2a78d6" fill-opacity="0.55"/>
<circle cx="578.12" cy="231" r="3.4" fill="#2a78d6" fill-opacity="0.55"/>
<circle cx="586.13" cy="231" r="3.4" fill="#2a78d6" fill-opacity="0.55"/>
<circle cx="541.64" cy="231" r="3.4" fill="#2a78d6" fill-opacity="0.55"/>
<circle cx="643.31" cy="231" r="3.4" fill="#2a78d6" fill-opacity="0.55"/>
<circle cx="599.81" cy="231" r="3.4" fill="#2a78d6" fill-opacity="0.55"/>
<circle cx="682" cy="231" r="3.4" fill="#2a78d6" fill-opacity="0.55"/>
<circle cx="541.64" cy="231" r="3.4" fill="#2a78d6" fill-opacity="0.55"/>
<circle cx="579.11" cy="231" r="3.4" fill="#2a78d6" fill-opacity="0.55"/>
<circle cx="647.66" cy="231" r="3.4" fill="#2a78d6" fill-opacity="0.55"/>
<circle cx="648.53" cy="231" r="3.4" fill="#2a78d6" fill-opacity="0.55"/>
<circle cx="643.31" cy="231" r="3.4" fill="#2a78d6" fill-opacity="0.55"/>
<circle cx="541.64" cy="231" r="3.4" fill="#2a78d6" fill-opacity="0.55"/>
<circle cx="525.4" cy="231" r="3.4" fill="#2a78d6" fill-opacity="0.55"/>
<circle cx="597.03" cy="231" r="3.4" fill="#2a78d6" fill-opacity="0.55"/>
<circle cx="643.31" cy="231" r="3.4" fill="#2a78d6" fill-opacity="0.55"/>
<circle cx="541.64" cy="231" r="3.4" fill="#2a78d6" fill-opacity="0.55"/>
<circle cx="552.54" cy="231" r="3.4" fill="#2a78d6" fill-opacity="0.55"/>
<line x1="594.32" x2="594.32" y1="223" y2="239" stroke="#0b0b0b" stroke-width="2"/>
<text x="16" y="256" font-size="12" fill="#0b0b0b" text-anchor="start" font-weight="600">Corporate records</text>
<text x="152" y="277" font-size="11" fill="#3d3d3a" text-anchor="end">DeepSeek V4.1 Flash</text>
<circle cx="306.62" cy="273" r="3.4" fill="#1baf7a" fill-opacity="0.55"/>
<circle cx="537" cy="273" r="3.4" fill="#1baf7a" fill-opacity="0.55"/>
<circle cx="430.63" cy="273" r="3.4" fill="#1baf7a" fill-opacity="0.55"/>
<circle cx="373.38" cy="273" r="3.4" fill="#1baf7a" fill-opacity="0.55"/>
<circle cx="520.41" cy="273" r="3.4" fill="#1baf7a" fill-opacity="0.55"/>
<circle cx="520.41" cy="273" r="3.4" fill="#1baf7a" fill-opacity="0.55"/>
<circle cx="580.5" cy="273" r="3.4" fill="#1baf7a" fill-opacity="0.55"/>
<circle cx="428.89" cy="273" r="3.4" fill="#1baf7a" fill-opacity="0.55"/>
<circle cx="301.35" cy="273" r="3.4" fill="#1baf7a" fill-opacity="0.55"/>
<circle cx="585.31" cy="273" r="3.4" fill="#1baf7a" fill-opacity="0.55"/>
<circle cx="605.9" cy="273" r="3.4" fill="#1baf7a" fill-opacity="0.55"/>
<circle cx="339.74" cy="273" r="3.4" fill="#1baf7a" fill-opacity="0.55"/>
<circle cx="426.63" cy="273" r="3.4" fill="#1baf7a" fill-opacity="0.55"/>
<circle cx="412.18" cy="273" r="3.4" fill="#1baf7a" fill-opacity="0.55"/>
<circle cx="368.16" cy="273" r="3.4" fill="#1baf7a" fill-opacity="0.55"/>
<circle cx="301.35" cy="273" r="3.4" fill="#1baf7a" fill-opacity="0.55"/>
<circle cx="324.08" cy="273" r="3.4" fill="#1baf7a" fill-opacity="0.55"/>
<circle cx="283.95" cy="273" r="3.4" fill="#1baf7a" fill-opacity="0.55"/>
<circle cx="359" cy="273" r="3.4" fill="#1baf7a" fill-opacity="0.55"/>
<circle cx="315.56" cy="273" r="3.4" fill="#1baf7a" fill-opacity="0.55"/>
<line x1="416.05" x2="416.05" y1="265" y2="281" stroke="#0b0b0b" stroke-width="2"/>
<text x="152" y="299" font-size="11" fill="#3d3d3a" text-anchor="end">Granite 4.2 8B</text>
<circle cx="307.61" cy="295" r="3.4" fill="#eb6834" fill-opacity="0.55"/>
<circle cx="479" cy="295" r="3.4" fill="#eb6834" fill-opacity="0.55"/>
<circle cx="160" cy="295" r="3.4" fill="#eb6834" fill-opacity="0.55"/>
<circle cx="320.2" cy="295" r="3.4" fill="#eb6834" fill-opacity="0.55"/>
<circle cx="548.08" cy="295" r="3.4" fill="#eb6834" fill-opacity="0.55"/>
<circle cx="520.41" cy="295" r="3.4" fill="#eb6834" fill-opacity="0.55"/>
<circle cx="551.5" cy="295" r="3.4" fill="#eb6834" fill-opacity="0.55"/>
<circle cx="428.89" cy="295" r="3.4" fill="#eb6834" fill-opacity="0.55"/>
<circle cx="355.58" cy="295" r="3.4" fill="#eb6834" fill-opacity="0.55"/>
<circle cx="491.06" cy="295" r="3.4" fill="#eb6834" fill-opacity="0.55"/>
<circle cx="569.65" cy="295" r="3.4" fill="#eb6834" fill-opacity="0.55"/>
<circle cx="339.68" cy="295" r="3.4" fill="#eb6834" fill-opacity="0.55"/>
<circle cx="405.57" cy="295" r="3.4" fill="#eb6834" fill-opacity="0.55"/>
<circle cx="397.68" cy="295" r="3.4" fill="#eb6834" fill-opacity="0.55"/>
<circle cx="368.16" cy="295" r="3.4" fill="#eb6834" fill-opacity="0.55"/>
<circle cx="293.05" cy="295" r="3.4" fill="#eb6834" fill-opacity="0.55"/>
<circle cx="306.22" cy="295" r="3.4" fill="#eb6834" fill-opacity="0.55"/>
<circle cx="502.78" cy="295" r="3.4" fill="#eb6834" fill-opacity="0.55"/>
<circle cx="340.67" cy="295" r="3.4" fill="#eb6834" fill-opacity="0.55"/>
<circle cx="335.45" cy="295" r="3.4" fill="#eb6834" fill-opacity="0.55"/>
<line x1="401.06" x2="401.06" y1="287" y2="303" stroke="#0b0b0b" stroke-width="2"/>
<text x="152" y="321" font-size="11" fill="#3d3d3a" text-anchor="end">Qwen3 8B</text>
<circle cx="369.09" cy="317" r="3.4" fill="#2a78d6" fill-opacity="0.55"/>
<circle cx="479" cy="317" r="3.4" fill="#2a78d6" fill-opacity="0.55"/>
<circle cx="438.86" cy="317" r="3.4" fill="#2a78d6" fill-opacity="0.55"/>
<circle cx="308.13" cy="317" r="3.4" fill="#2a78d6" fill-opacity="0.55"/>
<circle cx="426.74" cy="317" r="3.4" fill="#2a78d6" fill-opacity="0.55"/>
<circle cx="489.32" cy="317" r="3.4" fill="#2a78d6" fill-opacity="0.55"/>
<circle cx="499.71" cy="317" r="3.4" fill="#2a78d6" fill-opacity="0.55"/>
<circle cx="428.89" cy="317" r="3.4" fill="#2a78d6" fill-opacity="0.55"/>
<circle cx="252.92" cy="317" r="3.4" fill="#2a78d6" fill-opacity="0.55"/>
<circle cx="479" cy="317" r="3.4" fill="#2a78d6" fill-opacity="0.55"/>
<circle cx="595" cy="317" r="3.4" fill="#2a78d6" fill-opacity="0.55"/>
<circle cx="306.22" cy="317" r="3.4" fill="#2a78d6" fill-opacity="0.55"/>
<circle cx="397.68" cy="317" r="3.4" fill="#2a78d6" fill-opacity="0.55"/>
<circle cx="362.07" cy="317" r="3.4" fill="#2a78d6" fill-opacity="0.55"/>
<circle cx="472.74" cy="317" r="3.4" fill="#2a78d6" fill-opacity="0.55"/>
<circle cx="293.05" cy="317" r="3.4" fill="#2a78d6" fill-opacity="0.55"/>
<circle cx="295.08" cy="317" r="3.4" fill="#2a78d6" fill-opacity="0.55"/>
<circle cx="311.15" cy="317" r="3.4" fill="#2a78d6" fill-opacity="0.55"/>
<circle cx="340.67" cy="317" r="3.4" fill="#2a78d6" fill-opacity="0.55"/>
<circle cx="299.78" cy="317" r="3.4" fill="#2a78d6" fill-opacity="0.55"/>
<line x1="392.26" x2="392.26" y1="309" y2="325" stroke="#0b0b0b" stroke-width="2"/>
<text x="16" y="342" font-size="12" fill="#0b0b0b" text-anchor="start" font-weight="600">Contracts</text>
<text x="152" y="363" font-size="11" fill="#3d3d3a" text-anchor="end">DeepSeek V4.1 Flash</text>
<circle cx="611.12" cy="359" r="3.4" fill="#1baf7a" fill-opacity="0.55"/>
<circle cx="546.63" cy="359" r="3.4" fill="#1baf7a" fill-opacity="0.55"/>
<circle cx="589.66" cy="359" r="3.4" fill="#1baf7a" fill-opacity="0.55"/>
<circle cx="657.18" cy="359" r="3.4" fill="#1baf7a" fill-opacity="0.55"/>
<circle cx="488.63" cy="359" r="3.4" fill="#1baf7a" fill-opacity="0.55"/>
<circle cx="660.95" cy="359" r="3.4" fill="#1baf7a" fill-opacity="0.55"/>
<circle cx="559.56" cy="359" r="3.4" fill="#1baf7a" fill-opacity="0.55"/>
<circle cx="495.3" cy="359" r="3.4" fill="#1baf7a" fill-opacity="0.55"/>
<circle cx="363.81" cy="359" r="3.4" fill="#1baf7a" fill-opacity="0.55"/>
<circle cx="740" cy="359" r="3.4" fill="#1baf7a" fill-opacity="0.55"/>
<circle cx="581.78" cy="359" r="3.4" fill="#1baf7a" fill-opacity="0.55"/>
<circle cx="160" cy="359" r="3.4" fill="#1baf7a" fill-opacity="0.55"/>
<circle cx="559.97" cy="359" r="3.4" fill="#1baf7a" fill-opacity="0.55"/>
<circle cx="160" cy="359" r="3.4" fill="#1baf7a" fill-opacity="0.55"/>
<circle cx="363.81" cy="359" r="3.4" fill="#1baf7a" fill-opacity="0.55"/>
<circle cx="160" cy="359" r="3.4" fill="#1baf7a" fill-opacity="0.55"/>
<circle cx="160" cy="359" r="3.4" fill="#1baf7a" fill-opacity="0.55"/>
<circle cx="160" cy="359" r="3.4" fill="#1baf7a" fill-opacity="0.55"/>
<circle cx="535.32" cy="359" r="3.4" fill="#1baf7a" fill-opacity="0.55"/>
<circle cx="605.32" cy="359" r="3.4" fill="#1baf7a" fill-opacity="0.55"/>
<line x1="457.95" x2="457.95" y1="351" y2="367" stroke="#0b0b0b" stroke-width="2"/>
<text x="152" y="385" font-size="11" fill="#3d3d3a" text-anchor="end">Granite 4.2 8B</text>
<circle cx="160" cy="381" r="3.4" fill="#eb6834" fill-opacity="0.55"/>
<circle cx="474.13" cy="381" r="3.4" fill="#eb6834" fill-opacity="0.55"/>
<circle cx="503.71" cy="381" r="3.4" fill="#eb6834" fill-opacity="0.55"/>
<circle cx="512.12" cy="381" r="3.4" fill="#eb6834" fill-opacity="0.55"/>
<circle cx="473.2" cy="381" r="3.4" fill="#eb6834" fill-opacity="0.55"/>
<circle cx="634.56" cy="381" r="3.4" fill="#eb6834" fill-opacity="0.55"/>
<circle cx="501.56" cy="381" r="3.4" fill="#eb6834" fill-opacity="0.55"/>
<circle cx="490.77" cy="381" r="3.4" fill="#eb6834" fill-opacity="0.55"/>
<circle cx="363.81" cy="381" r="3.4" fill="#eb6834" fill-opacity="0.55"/>
<circle cx="740" cy="381" r="3.4" fill="#eb6834" fill-opacity="0.55"/>
<circle cx="511.48" cy="381" r="3.4" fill="#eb6834" fill-opacity="0.55"/>
<circle cx="477.2" cy="381" r="3.4" fill="#eb6834" fill-opacity="0.55"/>
<circle cx="160" cy="381" r="3.4" fill="#eb6834" fill-opacity="0.55"/>
<circle cx="525.63" cy="381" r="3.4" fill="#eb6834" fill-opacity="0.55"/>
<circle cx="160" cy="381" r="3.4" fill="#eb6834" fill-opacity="0.55"/>
<circle cx="487.99" cy="381" r="3.4" fill="#eb6834" fill-opacity="0.55"/>
<circle cx="355.17" cy="381" r="3.4" fill="#eb6834" fill-opacity="0.55"/>
<circle cx="522.5" cy="381" r="3.4" fill="#eb6834" fill-opacity="0.55"/>
<circle cx="518.27" cy="381" r="3.4" fill="#eb6834" fill-opacity="0.55"/>
<circle cx="160" cy="381" r="3.4" fill="#eb6834" fill-opacity="0.55"/>
<line x1="436.6" x2="436.6" y1="373" y2="389" stroke="#0b0b0b" stroke-width="2"/>
<text x="152" y="407" font-size="11" fill="#3d3d3a" text-anchor="end">Qwen3 8B</text>
<circle cx="514.44" cy="403" r="3.4" fill="#2a78d6" fill-opacity="0.55"/>
<circle cx="458.06" cy="403" r="3.4" fill="#2a78d6" fill-opacity="0.55"/>
<circle cx="535.96" cy="403" r="3.4" fill="#2a78d6" fill-opacity="0.55"/>
<circle cx="532.88" cy="403" r="3.4" fill="#2a78d6" fill-opacity="0.55"/>
<circle cx="473.2" cy="403" r="3.4" fill="#2a78d6" fill-opacity="0.55"/>
<circle cx="529.05" cy="403" r="3.4" fill="#2a78d6" fill-opacity="0.55"/>
<circle cx="482.19" cy="403" r="3.4" fill="#2a78d6" fill-opacity="0.55"/>
<circle cx="463.57" cy="403" r="3.4" fill="#2a78d6" fill-opacity="0.55"/>
<circle cx="740" cy="403" r="3.4" fill="#2a78d6" fill-opacity="0.55"/>
<circle cx="740" cy="403" r="3.4" fill="#2a78d6" fill-opacity="0.55"/>
<circle cx="493.91" cy="403" r="3.4" fill="#2a78d6" fill-opacity="0.55"/>
<circle cx="477.2" cy="403" r="3.4" fill="#2a78d6" fill-opacity="0.55"/>
<circle cx="489.96" cy="403" r="3.4" fill="#2a78d6" fill-opacity="0.55"/>
<circle cx="487.82" cy="403" r="3.4" fill="#2a78d6" fill-opacity="0.55"/>
<circle cx="363.81" cy="403" r="3.4" fill="#2a78d6" fill-opacity="0.55"/>
<circle cx="508.7" cy="403" r="3.4" fill="#2a78d6" fill-opacity="0.55"/>
<circle cx="496.75" cy="403" r="3.4" fill="#2a78d6" fill-opacity="0.55"/>
<circle cx="595" cy="403" r="3.4" fill="#2a78d6" fill-opacity="0.55"/>
<circle cx="492.69" cy="403" r="3.4" fill="#2a78d6" fill-opacity="0.55"/>
<circle cx="481.03" cy="403" r="3.4" fill="#2a78d6" fill-opacity="0.55"/>
<line x1="517.81" x2="517.81" y1="395" y2="411" stroke="#0b0b0b" stroke-width="2"/>
<text x="16" y="428" font-size="12" fill="#0b0b0b" text-anchor="start" font-weight="600">Merger agreements</text>
<text x="152" y="449" font-size="11" fill="#3d3d3a" text-anchor="end">DeepSeek V4.1 Flash</text>
<circle cx="517.4" cy="445" r="3.4" fill="#1baf7a" fill-opacity="0.55"/>
<circle cx="374.6" cy="445" r="3.4" fill="#1baf7a" fill-opacity="0.55"/>
<circle cx="585.31" cy="445" r="3.4" fill="#1baf7a" fill-opacity="0.55"/>
<circle cx="346.82" cy="445" r="3.4" fill="#1baf7a" fill-opacity="0.55"/>
<circle cx="160" cy="445" r="3.4" fill="#1baf7a" fill-opacity="0.55"/>
<circle cx="363.93" cy="445" r="3.4" fill="#1baf7a" fill-opacity="0.55"/>
<circle cx="569.42" cy="445" r="3.4" fill="#1baf7a" fill-opacity="0.55"/>
<circle cx="595" cy="445" r="3.4" fill="#1baf7a" fill-opacity="0.55"/>
<circle cx="160" cy="445" r="3.4" fill="#1baf7a" fill-opacity="0.55"/>
<circle cx="356.33" cy="445" r="3.4" fill="#1baf7a" fill-opacity="0.55"/>
<circle cx="541.81" cy="445" r="3.4" fill="#1baf7a" fill-opacity="0.55"/>
<circle cx="160" cy="445" r="3.4" fill="#1baf7a" fill-opacity="0.55"/>
<circle cx="160" cy="445" r="3.4" fill="#1baf7a" fill-opacity="0.55"/>
<circle cx="160" cy="445" r="3.4" fill="#1baf7a" fill-opacity="0.55"/>
<circle cx="160" cy="445" r="3.4" fill="#1baf7a" fill-opacity="0.55"/>
<circle cx="160" cy="445" r="3.4" fill="#1baf7a" fill-opacity="0.55"/>
<circle cx="160" cy="445" r="3.4" fill="#1baf7a" fill-opacity="0.55"/>
<circle cx="160" cy="445" r="3.4" fill="#1baf7a" fill-opacity="0.55"/>
<circle cx="160" cy="445" r="3.4" fill="#1baf7a" fill-opacity="0.55"/>
<circle cx="160" cy="445" r="3.4" fill="#1baf7a" fill-opacity="0.55"/>
<line x1="300.53" x2="300.53" y1="437" y2="453" stroke="#0b0b0b" stroke-width="2"/>
<text x="152" y="471" font-size="11" fill="#3d3d3a" text-anchor="end">Granite 4.2 8B</text>
<circle cx="450" cy="467" r="3.4" fill="#eb6834" fill-opacity="0.55"/>
<circle cx="450" cy="467" r="3.4" fill="#eb6834" fill-opacity="0.55"/>
<circle cx="546.63" cy="467" r="3.4" fill="#eb6834" fill-opacity="0.55"/>
<circle cx="450" cy="467" r="3.4" fill="#eb6834" fill-opacity="0.55"/>
<circle cx="484.1" cy="467" r="3.4" fill="#eb6834" fill-opacity="0.55"/>
<circle cx="217.42" cy="467" r="3.4" fill="#eb6834" fill-opacity="0.55"/>
<circle cx="450" cy="467" r="3.4" fill="#eb6834" fill-opacity="0.55"/>
<circle cx="466.12" cy="467" r="3.4" fill="#eb6834" fill-opacity="0.55"/>
<circle cx="450" cy="467" r="3.4" fill="#eb6834" fill-opacity="0.55"/>
<circle cx="450" cy="467" r="3.4" fill="#eb6834" fill-opacity="0.55"/>
<circle cx="450" cy="467" r="3.4" fill="#eb6834" fill-opacity="0.55"/>
<circle cx="450" cy="467" r="3.4" fill="#eb6834" fill-opacity="0.55"/>
<circle cx="466.12" cy="467" r="3.4" fill="#eb6834" fill-opacity="0.55"/>
<circle cx="352.27" cy="467" r="3.4" fill="#eb6834" fill-opacity="0.55"/>
<circle cx="217.42" cy="467" r="3.4" fill="#eb6834" fill-opacity="0.55"/>
<circle cx="450" cy="467" r="3.4" fill="#eb6834" fill-opacity="0.55"/>
<circle cx="217.42" cy="467" r="3.4" fill="#eb6834" fill-opacity="0.55"/>
<circle cx="486.25" cy="467" r="3.4" fill="#eb6834" fill-opacity="0.55"/>
<circle cx="450" cy="467" r="3.4" fill="#eb6834" fill-opacity="0.55"/>
<circle cx="522.5" cy="467" r="3.4" fill="#eb6834" fill-opacity="0.55"/>
<line x1="423.81" x2="423.81" y1="459" y2="475" stroke="#0b0b0b" stroke-width="2"/>
<text x="152" y="493" font-size="11" fill="#3d3d3a" text-anchor="end">Qwen3.7 Flash</text>
<circle cx="312.71" cy="489" r="3.4" fill="#8a5cd6" fill-opacity="0.55"/>
<circle cx="333.19" cy="489" r="3.4" fill="#8a5cd6" fill-opacity="0.55"/>
<circle cx="527.31" cy="489" r="3.4" fill="#8a5cd6" fill-opacity="0.55"/>
<circle cx="261.56" cy="489" r="3.4" fill="#8a5cd6" fill-opacity="0.55"/>
<circle cx="160" cy="489" r="3.4" fill="#8a5cd6" fill-opacity="0.55"/>
<circle cx="329.77" cy="489" r="3.4" fill="#8a5cd6" fill-opacity="0.55"/>
<circle cx="518.27" cy="489" r="3.4" fill="#8a5cd6" fill-opacity="0.55"/>
<circle cx="562.81" cy="489" r="3.4" fill="#8a5cd6" fill-opacity="0.55"/>
<circle cx="287.66" cy="489" r="3.4" fill="#8a5cd6" fill-opacity="0.55"/>
<circle cx="243.58" cy="489" r="3.4" fill="#8a5cd6" fill-opacity="0.55"/>
<circle cx="483.87" cy="489" r="3.4" fill="#8a5cd6" fill-opacity="0.55"/>
<circle cx="450" cy="489" r="3.4" fill="#8a5cd6" fill-opacity="0.55"/>
<circle cx="514.44" cy="489" r="3.4" fill="#8a5cd6" fill-opacity="0.55"/>
<circle cx="518.27" cy="489" r="3.4" fill="#8a5cd6" fill-opacity="0.55"/>
<circle cx="268.63" cy="489" r="3.4" fill="#8a5cd6" fill-opacity="0.55"/>
<circle cx="160" cy="489" r="3.4" fill="#8a5cd6" fill-opacity="0.55"/>
<circle cx="319.79" cy="489" r="3.4" fill="#8a5cd6" fill-opacity="0.55"/>
<circle cx="504.4" cy="489" r="3.4" fill="#8a5cd6" fill-opacity="0.55"/>
<circle cx="297.87" cy="489" r="3.4" fill="#8a5cd6" fill-opacity="0.55"/>
<circle cx="493.5" cy="489" r="3.4" fill="#8a5cd6" fill-opacity="0.55"/>
<line x1="377.38" x2="377.38" y1="481" y2="497" stroke="#0b0b0b" stroke-width="2"/>
</svg>
